<svg xmlns="http://www.w3.org/2000/svg" viewBox="0 0 100 15.83"><defs><style>.cls-1{fill:#005cb9;}.cls-2{fill:#a50064;}</style></defs><title>Fichier 4Axians 100px</title><g id="Calque_2" data-name="Calque 2"><g id="Livello_1" data-name="Livello 1"><path class="cls-1" d="M84.69,13.92a.47.47,0,0,1-.2-.75l1.07-1.32a.61.61,0,0,1,.77-.14A15,15,0,0,0,94.51,13C96.58,12.68,97,11.79,97,11a1.61,1.61,0,0,0-1.06-1.47c-.62-.33-3.15-.49-6.26-.8s-4.9-1.84-4.9-4.23a3.74,3.74,0,0,1,2-3.39c1.44-.94,7.22-2.32,13,.81a.48.48,0,0,1,.2.74L98.8,4a.63.63,0,0,1-.77.13,14.66,14.66,0,0,0-6.59-1.37C87.8,2.88,87.8,4,87.8,4.52s0,1.26,2.26,1.52l4.29.47c4,.43,5.72,2,5.65,4.64s-1.76,3.67-4,4.27A16.49,16.49,0,0,1,84.69,13.92Z"/><rect class="cls-1" x="44.68" y="0.03" width="3.08" height="15.78" rx="0.49"/><path class="cls-2" d="M30,10.07c6.19,6.74,11.87,5.69,11.87,5.69a.49.49,0,0,0,.49-.49v-1.9a.48.48,0,0,0-.49-.48,12.1,12.1,0,0,1-6-1.44,15.09,15.09,0,0,1-3.94-3.52A14.83,14.83,0,0,1,35.86,4.4a12.1,12.1,0,0,1,6-1.44.48.48,0,0,0,.49-.48V.58a.49.49,0,0,0-.49-.49S36.16-1,30,5.78C23.78-1,18.09.09,18.09.09a.49.49,0,0,0-.49.49v1.9a.48.48,0,0,0,.49.48,12.13,12.13,0,0,1,6,1.44A15,15,0,0,1,28,7.93a15.3,15.3,0,0,1-3.94,3.52,12.13,12.13,0,0,1-6,1.44.48.48,0,0,0-.49.48v1.9a.49.49,0,0,0,.49.49S23.78,16.81,30,10.07Z"/><path class="cls-1" d="M63.25,1.32c-1.44-1-7-2.59-12.7.57a.5.5,0,0,0-.2.76L51.43,4a.61.61,0,0,0,.77.13,13.29,13.29,0,0,1,6.3-1.31c3.65.11,3.82,1.43,3.82,1.93V6.56a4.93,4.93,0,0,0-1.93-.4h-6A4.83,4.83,0,0,0,49.59,11a4.85,4.85,0,0,0,4.83,4.83h6A4.83,4.83,0,0,0,65.22,11V4.74A3.79,3.79,0,0,0,63.25,1.32Zm-2.7,11.79H54.26a2.12,2.12,0,0,1,0-4.24h6.29a2.12,2.12,0,0,1,0,4.24Z"/><path class="cls-1" d="M13.65,1.32C12.22.36,6.7-1.27,1,1.89a.5.5,0,0,0-.2.76L1.83,4a.61.61,0,0,0,.77.13A13.3,13.3,0,0,1,8.91,2.81c3.64.11,3.82,1.43,3.82,1.93V6.56a5,5,0,0,0-1.93-.4h-6a4.83,4.83,0,0,0,0,9.66h6A4.82,4.82,0,0,0,15.62,11V4.74A3.79,3.79,0,0,0,13.65,1.32ZM11,13.11H4.67a2.12,2.12,0,0,1,0-4.24H11a2.12,2.12,0,0,1,0,4.24Z"/><path class="cls-1" d="M75.05,0A19.64,19.64,0,0,1,77.8.19c5,.64,4.89,4.43,4.89,4.43V15.3a.49.49,0,0,1-.49.49H80.29a.49.49,0,0,1-.49-.49V4.62S79.86,3.23,77.18,3a17.88,17.88,0,0,0-2.13-.11A18.07,18.07,0,0,0,72.91,3c-2.68.23-2.62,1.62-2.62,1.62V15.3a.49.49,0,0,1-.49.49H67.89a.49.49,0,0,1-.49-.49V4.62S67.25.83,72.29.19A19.71,19.71,0,0,1,75.05,0Z"/></g></g></svg>